<svg height="394.66666pt" viewBox="-12 -12 394.66666 394.66666" width="394.66666pt" xmlns="http://www.w3.org/2000/svg"><path d="m61.25 370h247.5c33.8125-.039062 61.210938-27.4375 61.25-61.25v-247.5c-.039062-33.8125-27.4375-61.2109375-61.25-61.25h-247.5c-33.8125.0390625-61.2109375 27.4375-61.25 61.25v247.5c.0390625 33.8125 27.4375 61.210938 61.25 61.25zm-38.75-308.75c.023438-21.390625 17.359375-38.726562 38.75-38.75h247.5c21.390625.023438 38.726562 17.359375 38.75 38.75v247.5c-.023438 21.390625-17.359375 38.726562-38.75 38.75h-247.5c-21.390625-.023438-38.726562-17.359375-38.75-38.75zm0 0"/><path d="m185 223.398438c21.207031 0 38.398438-17.191407 38.398438-38.398438s-17.191407-38.398438-38.398438-38.398438-38.398438 17.191407-38.398438 38.398438c.023438 21.195312 17.203126 38.375 38.398438 38.398438zm0-54.296876c8.78125 0 15.898438 7.117188 15.898438 15.898438s-7.117188 15.898438-15.898438 15.898438-15.898438-7.117188-15.898438-15.898438c.007813-8.773438 7.125-15.890625 15.898438-15.898438zm0 0"/><path d="m103.554688 141.953125c21.207031 0 38.398437-17.191406 38.398437-38.398437 0-21.210938-17.191406-38.398438-38.398437-38.398438-21.207032 0-38.398438 17.191406-38.398438 38.398438.023438 21.195312 17.203125 38.375 38.398438 38.398437zm0-54.296875c8.78125 0 15.898437 7.117188 15.898437 15.898438s-7.117187 15.898437-15.898437 15.898437-15.898438-7.117187-15.898438-15.898437c.007812-8.773438 7.125-15.890626 15.898438-15.898438zm0 0"/><path d="m266.445312 141.953125c21.207032 0 38.398438-17.191406 38.398438-38.398437 0-21.207032-17.191406-38.398438-38.398438-38.398438-21.207031 0-38.398437 17.191406-38.398437 38.398438.023437 21.195312 17.203125 38.375 38.398437 38.398437zm0-54.296875c8.78125 0 15.898438 7.117188 15.898438 15.898438s-7.113281 15.898437-15.898438 15.898437c-8.78125 0-15.898437-7.117187-15.898437-15.898437.007813-8.773438 7.125-15.890626 15.898437-15.898438zm0 0"/><path d="m103.554688 304.84375c21.207031 0 38.398437-17.191406 38.398437-38.398438 0-21.207031-17.191406-38.398437-38.398437-38.398437-21.207032 0-38.398438 17.191406-38.398438 38.398437.023438 21.195313 17.203125 38.375 38.398438 38.398438zm0-54.296875c8.78125 0 15.898437 7.117187 15.898437 15.898437 0 8.785157-7.117187 15.898438-15.898437 15.898438s-15.898438-7.117188-15.898438-15.898438c.007812-8.773437 7.125-15.890624 15.898438-15.898437zm0 0"/><path d="m266.445312 304.84375c21.207032 0 38.398438-17.191406 38.398438-38.398438 0-21.207031-17.1875-38.398437-38.398438-38.398437-21.207031 0-38.398437 17.191406-38.398437 38.398437.023437 21.195313 17.203125 38.375 38.398437 38.398438zm0-54.296875c8.78125 0 15.898438 7.117187 15.898438 15.898437s-7.117188 15.898438-15.898438 15.898438-15.898437-7.117188-15.898437-15.898438c.007813-8.773437 7.125-15.890624 15.898437-15.898437zm0 0"/></svg>